<svg width="26" height="26" viewBox="0 0 26 26" fill="none" xmlns="http://www.w3.org/2000/svg">
<g id="&#229;&#133;&#179;&#233;&#151;&#173;">
<path id="&#232;&#183;&#175;&#229;&#190;&#132;" fill-rule="evenodd" clip-rule="evenodd" d="M20.2758 6.48718C20.4873 6.69872 20.4873 7.04168 20.2758 7.25322L14.5305 12.9985L20.2758 18.7437C20.4873 18.9552 20.4873 19.2982 20.2758 19.5097L19.5097 20.2758C19.2982 20.4873 18.9552 20.4873 18.7437 20.2758L12.9985 14.5305L7.25322 20.2758C7.04168 20.4873 6.69872 20.4873 6.48718 20.2758L5.72115 19.5097C5.50962 19.2982 5.50962 18.9552 5.72115 18.7437L11.4664 12.9985L5.72115 7.25322C5.50962 7.04168 5.50962 6.69872 5.72115 6.48718L6.48718 5.72115C6.69872 5.50962 7.04168 5.50962 7.25322 5.72115L12.9985 11.4664L18.7437 5.72115C18.9552 5.50962 19.2982 5.50962 19.5097 5.72115L20.2758 6.48718Z" fill="white"/>
</g>
</svg>
