<svg width="25" height="24" viewBox="0 0 25 24" fill="none" xmlns="http://www.w3.org/2000/svg">
<g id="download 1">
<path id="Vector" d="M12.3527 15.4922C12.4277 15.5883 12.573 15.5883 12.648 15.4922L15.273 12.1711C15.3691 12.0492 15.2824 11.8687 15.1254 11.8687H13.3887V3.9375C13.3887 3.83437 13.3043 3.75 13.2012 3.75H11.7949C11.6918 3.75 11.6074 3.83437 11.6074 3.9375V11.8664H9.87538C9.71835 11.8664 9.63163 12.0469 9.72772 12.1687L12.3527 15.4922Z" fill="white"/>
<path id="Vector_2" d="M21.0781 14.6719H19.6719C19.5688 14.6719 19.4844 14.7562 19.4844 14.8594V18.4688H5.51562V14.8594C5.51562 14.7562 5.43125 14.6719 5.32812 14.6719H3.92188C3.81875 14.6719 3.73438 14.7562 3.73438 14.8594V19.5C3.73438 19.9148 4.06953 20.25 4.48438 20.25H20.5156C20.9305 20.25 21.2656 19.9148 21.2656 19.5V14.8594C21.2656 14.7562 21.1812 14.6719 21.0781 14.6719Z" fill="white"/>
</g>
</svg>
