<svg width="25" height="24" viewBox="0 0 25 24" fill="none" xmlns="http://www.w3.org/2000/svg">
<g id="rotate-left 1">
<path id="Vector" d="M16.25 9.79688H3.875C3.46016 9.79688 3.125 10.132 3.125 10.5469V20.25C3.125 20.6648 3.46016 21 3.875 21H16.25C16.6648 21 17 20.6648 17 20.25V10.5469C17 10.132 16.6648 9.79688 16.25 9.79688ZM15.2188 19.2188H4.90625V11.5781H15.2188V19.2188Z" fill="white"/>
<path id="Vector_2" d="M19.7038 7.70259C17.8569 5.34243 15.1101 4.10259 12.3304 4.08853L12.3257 2.58853C12.3257 2.43618 12.1476 2.35181 12.0304 2.44556L9.03037 4.81275C8.93662 4.8854 8.93897 5.02603 9.03037 5.10103L12.0327 7.47056C12.1522 7.56431 12.3304 7.47993 12.328 7.32759V5.82993C12.6304 5.83228 12.9351 5.85103 13.2374 5.88853C14.2241 6.0104 15.1616 6.31509 16.0265 6.79556C16.9194 7.29243 17.6952 7.9604 18.3327 8.77134C18.9679 9.58462 19.4272 10.4987 19.6944 11.4854C19.9522 12.4393 20.0226 13.4237 19.903 14.4104C19.8866 14.537 19.8702 14.6635 19.8468 14.7877H21.6022C21.9491 12.3596 21.3374 9.79556 19.7038 7.70259Z" fill="white"/>
</g>
</svg>
