<svg width="25" height="24" viewBox="0 0 25 24" fill="none" xmlns="http://www.w3.org/2000/svg">
<g id="&#229;&#133;&#168;&#229;&#177;&#143; (1) 1">
<g id="Group 1739333025">
<path id="Vector" d="M9.60539 5.53125H6.6778C6.50633 5.53125 6.34187 5.59937 6.22062 5.72062C6.09937 5.84187 6.03125 6.00633 6.03125 6.1778V8.96379C6.03125 9.13527 6.09937 9.29972 6.22062 9.42097C6.34187 9.54223 6.50633 9.61035 6.6778 9.61035C6.84928 9.61035 7.01373 9.54223 7.13498 9.42097C7.25623 9.29972 7.32435 9.13527 7.32435 8.96379V6.82435H9.60539C9.77686 6.82435 9.94132 6.75623 10.0626 6.63498C10.1838 6.51373 10.2519 6.34928 10.2519 6.1778C10.2519 6.00633 10.1838 5.84187 10.0626 5.72062C9.94132 5.59937 9.77686 5.53125 9.60539 5.53125ZM18.0099 5.53125H15.083C14.9115 5.53125 14.747 5.59937 14.6258 5.72062C14.5045 5.84187 14.4364 6.00633 14.4364 6.1778C14.4364 6.34928 14.5045 6.51373 14.6258 6.63498C14.747 6.75623 14.9115 6.82435 15.083 6.82435H17.3634V8.96379C17.3634 9.13527 17.4315 9.29972 17.5527 9.42097C17.674 9.54223 17.8384 9.61035 18.0099 9.61035C18.1814 9.61035 18.3458 9.54223 18.4671 9.42097C18.5883 9.29972 18.6565 9.13527 18.6565 8.96379V6.1778C18.6565 6.00633 18.5883 5.84187 18.4671 5.72062C18.3458 5.59937 18.1814 5.53125 18.0099 5.53125ZM9.60539 17.3696H7.32435V15.2295C7.32435 15.0581 7.25623 14.8936 7.13498 14.7723C7.01373 14.6511 6.84928 14.583 6.6778 14.583C6.50633 14.583 6.34187 14.6511 6.22062 14.7723C6.09937 14.8936 6.03125 15.0581 6.03125 15.2295V18.0162C6.03125 18.1876 6.09937 18.3521 6.22062 18.4733C6.34187 18.5946 6.50633 18.6627 6.6778 18.6627H9.60539C9.77686 18.6627 9.94132 18.5946 10.0626 18.4733C10.1838 18.3521 10.2519 18.1876 10.2519 18.0162C10.2519 17.8447 10.1838 17.6802 10.0626 17.559C9.94132 17.4377 9.77686 17.3696 9.60539 17.3696ZM18.0099 14.583C17.8384 14.583 17.674 14.6511 17.5527 14.7723C17.4315 14.8936 17.3634 15.0581 17.3634 15.2295V17.3696H15.083C14.9115 17.3696 14.747 17.4377 14.6258 17.559C14.5045 17.6802 14.4364 17.8447 14.4364 18.0162C14.4364 18.1876 14.5045 18.3521 14.6258 18.4733C14.747 18.5946 14.9115 18.6627 15.083 18.6627H18.0099C18.1814 18.6627 18.3458 18.5946 18.4671 18.4733C18.5883 18.3521 18.6565 18.1876 18.6565 18.0162V15.2295C18.6565 15.0581 18.5883 14.8936 18.4671 14.7723C18.3458 14.6511 18.1814 14.583 18.0099 14.583Z" fill="white"/>
<path id="Vector_2" d="M20.5819 2.625H4.4181C3.70496 2.625 3.125 3.20496 3.125 3.9181V20.0819C3.125 20.795 3.70496 21.375 4.4181 21.375H20.5819C21.295 21.375 21.875 20.795 21.875 20.0819V3.9181C21.875 3.20496 21.295 2.625 20.5819 2.625ZM4.4181 20.0819V3.9181H20.5819L20.5832 20.0819H4.4181Z" fill="white"/>
</g>
</g>
</svg>
