<svg width="25" height="24" viewBox="0 0 25 24" fill="none" xmlns="http://www.w3.org/2000/svg">
<g id="zoom out">
<path id="Vector" d="M15.4297 10.3828H8.11719C8.01406 10.3828 7.92969 10.4672 7.92969 10.5703V11.9766C7.92969 12.0797 8.01406 12.1641 8.11719 12.1641H15.4297C15.5328 12.1641 15.6172 12.0797 15.6172 11.9766V10.5703C15.6172 10.4672 15.5328 10.3828 15.4297 10.3828Z" fill="white"/>
<path id="Vector_2" d="M22.0877 20.3221L18.6658 16.9002C21.5275 13.4104 21.3283 8.24004 18.0564 4.97051C14.5877 1.49941 8.95332 1.49941 5.47051 4.97051C1.99941 8.45332 1.99941 14.0877 5.47051 17.5564C8.74004 20.8283 13.9104 21.0275 17.4002 18.1658L20.8221 21.5877C20.8971 21.6533 21.0166 21.6533 21.0799 21.5877L22.0877 20.5799C22.1533 20.5166 22.1533 20.3971 22.0877 20.3221ZM16.8143 16.3143C14.0299 19.0963 9.52051 19.0963 6.73613 16.3143C3.9541 13.5299 3.9541 9.02051 6.73613 6.23613C9.52051 3.4541 14.0299 3.4541 16.8143 6.23613C19.5963 9.02051 19.5963 13.5299 16.8143 16.3143Z" fill="white"/>
</g>
</svg>
