<svg width="25" height="24" viewBox="0 0 25 24" fill="none" xmlns="http://www.w3.org/2000/svg">
  <g id="1_1 1">
    <path
      id="Vector"
      d="M7.90625 15.75H9.3125C9.41562 15.75 9.5 15.6656 9.5 15.5625V8.4375C9.5 8.33437 9.41562 8.25 9.3125 8.25H7.90625C7.80312 8.25 7.71875 8.33437 7.71875 8.4375V15.5625C7.71875 15.6656 7.80312 15.75 7.90625 15.75ZM12.5 14.5781C13.018 14.5781 13.4375 14.1586 13.4375 13.6641C13.4375 13.1227 13.018 12.7031 12.5 12.7031C11.982 12.7031 11.5625 13.1227 11.5625 13.6641C11.5625 14.1586 11.982 14.5781 12.5 14.5781ZM12.5 11.2969C13.018 11.2969 13.4375 10.8773 13.4375 10.3828C13.4375 9.84141 13.018 9.42188 12.5 9.42188C11.982 9.42188 11.5625 9.84141 11.5625 10.3828C11.5625 10.8773 11.982 11.2969 12.5 11.2969Z"
      fill="white"
    />
    <path
      id="Vector_2"
      d="M21.125 2.625H3.875C3.46016 2.625 3.125 2.96016 3.125 3.375V20.625C3.125 21.0398 3.46016 21.375 3.875 21.375H21.125C21.5398 21.375 21.875 21.0398 21.875 20.625V3.375C21.875 2.96016 21.5398 2.625 21.125 2.625ZM20.1875 19.6875H4.8125V4.3125H20.1875V19.6875Z"
      fill="white"
    />
    <path
      id="Vector_3"
      d="M15.6875 15.75H17.0938C17.1969 15.75 17.2812 15.6656 17.2812 15.5625V8.4375C17.2812 8.33437 17.1969 8.25 17.0938 8.25H15.6875C15.5844 8.25 15.5 8.33437 15.5 8.4375V15.5625C15.5 15.6656 15.5844 15.75 15.6875 15.75Z"
      fill="white"
    />
  </g>
</svg>
